<svg width="37" height="30" viewBox="0 0 37 30" fill="none" xmlns="http://www.w3.org/2000/svg">
<path d="M11.2595 5.33125C11.2595 5.57056 11.2485 5.81367 11.2227 6.05298C11.2227 6.05678 11.1969 6.24671 11.2116 6.13275C11.2042 6.18973 11.1932 6.24671 11.1858 6.30369C11.1674 6.41764 11.1453 6.5278 11.1195 6.64176C11.0716 6.85828 11.0089 7.071 10.9352 7.28372C10.9168 7.3331 10.8983 7.38628 10.8799 7.43566C10.8209 7.599 10.9241 7.34069 10.8541 7.49644C10.8136 7.5914 10.7693 7.69016 10.7214 7.78133C10.6293 7.96366 10.5298 8.13839 10.4155 8.30933C10.3897 8.35111 10.3602 8.3891 10.3307 8.43088C10.2386 8.56383 10.4008 8.34732 10.3013 8.47267C10.2386 8.54484 10.1796 8.62081 10.117 8.69299C10.0543 8.76136 9.98798 8.82973 9.92164 8.89431C9.88847 8.9247 9.85529 8.95509 9.81844 8.98548C9.8037 8.99687 9.68575 9.09563 9.78895 9.01206C9.6489 9.12222 9.50147 9.21719 9.34667 9.30076C9.30982 9.31975 9.26927 9.33874 9.23242 9.35773C9.10342 9.42231 9.34299 9.31975 9.20662 9.36913C9.12553 9.39952 9.04814 9.42991 8.96337 9.4527C8.88228 9.47549 8.79751 9.49068 8.71643 9.50968C8.58374 9.54007 8.8012 9.50968 8.71643 9.50968C8.66851 9.50968 8.61691 9.52107 8.56531 9.52107C8.48054 9.52487 8.39209 9.52487 8.30732 9.52107C8.26309 9.51728 8.22255 9.51348 8.17832 9.50968C8.03458 9.49828 8.29626 9.53627 8.15621 9.50588C7.98667 9.46789 7.82818 9.42611 7.66601 9.36533C7.52964 9.31595 7.76921 9.41851 7.64021 9.35394C7.60336 9.33494 7.56281 9.31595 7.52596 9.29696C7.44856 9.25517 7.37485 9.20959 7.30113 9.16401C7.22742 9.11463 7.15371 9.06145 7.08368 9.00827C7.17213 9.07664 7.10948 9.02726 7.09105 9.01206C7.04682 8.97028 6.99891 8.9323 6.95468 8.89051C6.81831 8.76136 6.693 8.61701 6.57506 8.47267C6.47554 8.35112 6.63771 8.56383 6.54557 8.43088C6.51609 8.3891 6.49029 8.35111 6.4608 8.30933C6.40552 8.22576 6.35023 8.14219 6.30232 8.05483C5.89321 7.34829 5.67207 6.50881 5.62784 5.69592C5.6131 5.45281 5.6131 5.2097 5.62784 4.96659C5.63521 4.85643 5.64258 4.75007 5.65364 4.63991C5.65733 4.59053 5.6647 4.54115 5.67207 4.49177C5.65733 4.59053 5.6905 4.37401 5.69418 4.35502C5.73104 4.1309 5.78264 3.91059 5.8453 3.69027C5.8711 3.6029 5.8969 3.51554 5.92638 3.42817C5.94481 3.37499 5.96324 3.32561 5.98167 3.27623C5.99272 3.24204 6.00747 3.20785 6.01852 3.17367C5.99641 3.22685 5.99641 3.22305 6.02221 3.16227C6.10698 2.97234 6.19543 2.78621 6.29863 2.60388C6.33917 2.53171 6.3834 2.45953 6.43132 2.39116C6.45712 2.34938 6.4866 2.30759 6.51609 2.26961C6.53451 2.24302 6.55294 2.21643 6.57506 2.18984C6.5382 2.23922 6.5382 2.23922 6.57506 2.18984C6.69668 2.04549 6.81831 1.90114 6.95468 1.77199C7.00996 1.71881 7.06894 1.66943 7.12422 1.62005C7.02102 1.70742 7.13528 1.61245 7.15371 1.59726C7.20162 1.56307 7.24953 1.52889 7.30113 1.4947C7.37485 1.44532 7.44856 1.40353 7.52596 1.36175C7.56281 1.34276 7.60336 1.32376 7.64021 1.30477C7.76921 1.24019 7.52964 1.34276 7.66601 1.29337C7.82818 1.2364 7.99035 1.19081 8.15621 1.15283C8.29626 1.12244 8.03458 1.16042 8.17832 1.14903C8.22255 1.14523 8.26309 1.14143 8.30732 1.13763C8.39209 1.13383 8.48054 1.13383 8.56531 1.13763C8.59848 1.13763 8.82331 1.17182 8.6722 1.14523C8.77171 1.16422 8.86754 1.18322 8.96337 1.20981C9.05919 1.2364 9.15133 1.27058 9.24347 1.30857C9.11448 1.25539 9.24716 1.31237 9.26927 1.32376C9.3135 1.34655 9.35773 1.36935 9.40196 1.39594C9.48673 1.44152 9.56413 1.4947 9.64521 1.54788C9.68207 1.57447 9.71893 1.60106 9.7521 1.62765C9.80001 1.66563 9.80001 1.66563 9.74472 1.62385C9.76684 1.64284 9.79264 1.66184 9.81475 1.68083C9.96586 1.81378 10.1096 1.96192 10.2386 2.11766C10.2681 2.15565 10.2976 2.19363 10.3271 2.23162C10.2497 2.13286 10.3713 2.2962 10.386 2.31519C10.4524 2.41015 10.515 2.50892 10.574 2.61148C10.6883 2.8052 10.7878 3.01033 10.8725 3.21925C10.8283 3.10909 10.891 3.27623 10.8947 3.28382C10.9205 3.3522 10.9426 3.42057 10.9647 3.48895C11.0052 3.6105 11.0421 3.73585 11.0752 3.86121C11.1047 3.97136 11.1305 4.08152 11.1526 4.19168C11.1637 4.24866 11.1748 4.30564 11.1858 4.36262C11.1895 4.38161 11.2227 4.59813 11.2079 4.49937C11.2448 4.76906 11.2558 5.05016 11.2595 5.33125C11.2595 5.62754 11.5138 5.91623 11.8124 5.90104C12.1109 5.88584 12.3652 5.65033 12.3652 5.33125C12.3579 3.44716 11.5986 1.2288 9.84792 0.351329C9.08131 -0.0361248 8.17832 -0.123492 7.37116 0.195588C6.51609 0.53366 5.84161 1.18701 5.36616 1.98851C4.301 3.78903 4.2494 6.16314 5.06394 8.07002C5.77158 9.7224 7.41539 11.0595 9.23979 10.5543C11.1268 10.0301 12.1072 7.95986 12.321 6.10996C12.3505 5.85166 12.3652 5.59335 12.3652 5.33125C12.3652 5.03496 12.1109 4.74627 11.8124 4.76147C11.5102 4.77286 11.2595 5.01217 11.2595 5.33125Z" fill="white"/>
<path d="M4.80613 10.2201C3.17707 10.5544 1.75441 11.5876 0.888278 13.0501C0.460741 13.7756 0.176945 14.5961 0.0663753 15.4356C-0.00365222 15.9674 3.34298e-05 16.4954 3.34298e-05 17.031C3.34298e-05 17.5172 3.34298e-05 18.0034 3.34298e-05 18.4934C3.34298e-05 18.8011 0.254344 19.0632 0.552882 19.0632C1.05045 19.0632 1.54801 19.0632 2.04189 19.0632C3.23604 19.0632 4.42651 19.0632 5.62067 19.0632C7.05807 19.0632 8.49179 19.0632 9.9292 19.0632C11.175 19.0632 12.4244 19.0632 13.6701 19.0632C14.2746 19.0632 14.8827 19.0822 15.4835 19.0632C15.4909 19.0632 15.5019 19.0632 15.5093 19.0632C15.7968 19.0632 16.0769 18.8011 16.0621 18.4934C16.0474 18.1857 15.8189 17.9236 15.5093 17.9236C15.0117 17.9236 14.5142 17.9236 14.0203 17.9236C12.8261 17.9236 11.6357 17.9236 10.4415 17.9236C9.0041 17.9236 7.57038 17.9236 6.13297 17.9236C4.88722 17.9236 3.63778 17.9236 2.39203 17.9236C1.79126 17.9236 1.17944 17.8894 0.578682 17.9236C0.571311 17.9236 0.560254 17.9236 0.552882 17.9236C0.737166 18.1136 0.921449 18.3035 1.10573 18.4934C1.10573 17.6729 1.06887 16.841 1.1131 16.0206C1.11679 15.9294 1.12416 15.8382 1.13522 15.7509C1.13522 15.7395 1.15733 15.5609 1.1389 15.6901C1.14627 15.6445 1.14996 15.6027 1.15733 15.5571C1.1905 15.3558 1.23104 15.1583 1.28264 14.9608C1.33056 14.7746 1.38953 14.5923 1.45587 14.4138C1.45955 14.4024 1.52221 14.2428 1.4743 14.3568C1.48904 14.3188 1.50747 14.277 1.5259 14.239C1.57012 14.1365 1.61804 14.0377 1.66964 13.9389C1.75441 13.7718 1.84655 13.6123 1.94606 13.4565C1.99029 13.3843 2.0382 13.316 2.08612 13.2476C2.09349 13.2362 2.193 13.1033 2.11929 13.202C2.14877 13.1602 2.18194 13.1222 2.21143 13.0843C2.451 12.7842 2.72374 12.5145 3.0149 12.2714C2.92276 12.3473 3.04807 12.2448 3.05913 12.2372C3.09967 12.2068 3.14022 12.1764 3.17707 12.1498C3.2729 12.0814 3.36873 12.0169 3.46455 11.9561C3.63409 11.8497 3.80732 11.7548 3.98792 11.6712C3.99897 11.6674 4.15009 11.599 4.03583 11.6484C4.08743 11.6256 4.14272 11.6028 4.198 11.5838C4.29751 11.5458 4.40071 11.5079 4.50391 11.4775C4.69925 11.4167 4.89459 11.3711 5.09362 11.3293C5.38478 11.2685 5.55432 10.9115 5.48061 10.6266C5.40321 10.3037 5.10099 10.1594 4.80613 10.2201Z" fill="white"/>
<path d="M16.1502 13.3689C15.3136 11.7469 13.8024 10.5808 12.0517 10.2199C11.7679 10.1629 11.4399 10.3035 11.3699 10.6188C11.3072 10.9037 11.451 11.2569 11.7569 11.3215C11.9412 11.3595 12.1255 11.4013 12.3024 11.4582C12.3982 11.4886 12.494 11.519 12.5898 11.557C12.6341 11.5722 12.6746 11.5912 12.7188 11.6064C12.8847 11.6672 12.6304 11.5608 12.7889 11.6368C13.1427 11.8001 13.4818 12.0014 13.7951 12.237C13.8172 12.2559 13.8909 12.3129 13.8319 12.2673C13.8725 12.3015 13.9167 12.3357 13.9572 12.3737C14.0273 12.4345 14.0936 12.4953 14.1599 12.5598C14.3037 12.7004 14.4437 12.8485 14.5727 13.0005C14.6022 13.0347 14.6317 13.0726 14.6612 13.1068C14.6796 13.1296 14.7386 13.2056 14.6944 13.1448C14.7607 13.2322 14.8234 13.3271 14.886 13.4183C14.9966 13.5892 15.0998 13.7678 15.1956 13.9501C15.3357 14.2198 15.7005 14.3072 15.9512 14.1552C16.2165 13.9881 16.2903 13.6424 16.1502 13.3689Z" fill="white"/>
<path d="M4.55906 11.1735C5.57262 12.0396 6.58986 12.9057 7.60342 13.7756C7.75084 13.9009 7.89458 14.0263 8.04201 14.1478C8.28895 14.3567 8.57643 14.3605 8.82337 14.1478C9.83693 13.2818 10.8542 12.4157 11.8677 11.5496C12.0152 11.4243 12.1589 11.2989 12.3063 11.1773C12.5348 10.9798 12.5053 10.5734 12.3063 10.372C12.0778 10.1365 11.7535 10.1745 11.525 10.372C10.5114 11.2381 9.49416 12.1042 8.4806 12.9703C8.33318 13.0956 8.18944 13.221 8.04201 13.3425C8.30369 13.3425 8.56169 13.3425 8.82337 13.3425C7.80981 12.4765 6.79257 11.6104 5.77901 10.7405C5.63159 10.6152 5.48785 10.4898 5.34042 10.3683C5.11191 10.1707 4.78389 10.1365 4.55906 10.3683C4.36372 10.5696 4.32686 10.976 4.55906 11.1735Z" fill="white"/>
<path d="M24.6348 5.33125C24.6421 7.21534 25.4014 9.43371 27.1521 10.3112C27.9187 10.6986 28.8217 10.786 29.6288 10.4669C30.4839 10.1288 31.1584 9.47549 31.6338 8.674C32.699 6.87347 32.7506 4.49937 31.9361 2.59249C31.2284 0.940109 29.5846 -0.396987 27.7602 0.108222C25.8731 0.632425 24.8928 2.70264 24.679 4.55255C24.6495 4.81085 24.6385 5.06915 24.6348 5.33125C24.6348 5.62754 24.8891 5.91623 25.1876 5.90104C25.4898 5.88585 25.7405 5.65033 25.7405 5.33125C25.7405 5.09194 25.7515 4.84884 25.7773 4.60953C25.7773 4.60573 25.8031 4.4158 25.7884 4.52976C25.7957 4.47278 25.8068 4.4158 25.8142 4.35882C25.8326 4.24486 25.8547 4.1347 25.8805 4.02075C25.9284 3.80423 25.9911 3.59151 26.0648 3.37879C26.0832 3.32941 26.1017 3.27623 26.1201 3.22685C26.1791 3.06351 26.0759 3.32181 26.1459 3.16607C26.1864 3.07111 26.2307 2.97234 26.2786 2.88118C26.3707 2.69885 26.4702 2.52411 26.5845 2.35318C26.6103 2.31139 26.6398 2.27341 26.6692 2.23162C26.7614 2.09867 26.5992 2.31519 26.6987 2.18984C26.7614 2.11767 26.8204 2.04169 26.883 1.96952C26.9457 1.90115 27.012 1.83277 27.0784 1.7682C27.1115 1.73781 27.1447 1.70742 27.1816 1.67703C27.1963 1.66564 27.3142 1.56687 27.211 1.65044C27.3511 1.54028 27.4985 1.44532 27.6533 1.36175C27.6902 1.34276 27.7307 1.32376 27.7676 1.30477C27.8966 1.2402 27.657 1.34276 27.7934 1.29338C27.8745 1.26299 27.9519 1.2326 28.0366 1.20981C28.1177 1.18702 28.2025 1.17182 28.2836 1.15283C28.1988 1.15283 28.4163 1.12244 28.2836 1.15283C28.3315 1.15283 28.3831 1.14143 28.4347 1.14143C28.5195 1.13763 28.6079 1.13763 28.6927 1.14143C28.7369 1.14523 28.7774 1.14903 28.8217 1.15283C28.9654 1.16422 28.7037 1.12624 28.8438 1.15663C29.0133 1.19461 29.1718 1.2364 29.334 1.29717C29.4704 1.34656 29.2308 1.24399 29.3598 1.30857C29.3966 1.32756 29.4372 1.34656 29.474 1.36555C29.5514 1.40733 29.6251 1.45292 29.6989 1.4985C29.7726 1.54788 29.8463 1.60106 29.9163 1.65424C29.8279 1.58587 29.8905 1.63525 29.9089 1.65044C29.9532 1.69223 30.0011 1.73021 30.0453 1.772C30.1817 1.90115 30.307 2.04549 30.4249 2.18984C30.5245 2.31139 30.3623 2.09867 30.4544 2.23162C30.4839 2.27341 30.5097 2.31139 30.5392 2.35318C30.5945 2.43674 30.6498 2.52031 30.6977 2.60768C31.1068 3.31421 31.3279 4.1537 31.3722 4.96659C31.3869 5.2097 31.3869 5.45281 31.3722 5.69592C31.3648 5.80608 31.3574 5.91244 31.3464 6.02259C31.3427 6.07198 31.3353 6.12136 31.3279 6.17074C31.3427 6.07198 31.3095 6.28849 31.3058 6.30749C31.269 6.5316 31.2174 6.75192 31.1547 6.97224C31.1289 7.0596 31.1031 7.14697 31.0736 7.23434C31.0552 7.28752 31.0368 7.3369 31.0183 7.38628C31.0073 7.42047 30.9925 7.45465 30.9815 7.48884C31.0036 7.43566 31.0036 7.43946 30.9778 7.50024C30.893 7.69017 30.8046 7.8763 30.7014 8.05863C30.6608 8.1308 30.6166 8.20297 30.5687 8.27135C30.5429 8.31313 30.5134 8.35491 30.4839 8.3929C30.4655 8.41949 30.4471 8.44608 30.4249 8.47267C30.4618 8.42329 30.4618 8.42329 30.4249 8.47267C30.3033 8.61702 30.1817 8.76136 30.0453 8.89051C29.99 8.94369 29.9311 8.99307 29.8758 9.04246C29.979 8.95509 29.8647 9.05005 29.8463 9.06525C29.7984 9.09943 29.7505 9.13362 29.6989 9.16781C29.6251 9.21719 29.5514 9.25897 29.474 9.30076C29.4372 9.31975 29.3966 9.33874 29.3598 9.35774C29.2308 9.42231 29.4704 9.31975 29.334 9.36913C29.1718 9.42611 29.0096 9.47169 28.8438 9.50968C28.7037 9.54007 28.9654 9.50208 28.8217 9.51348C28.7774 9.51728 28.7369 9.52108 28.6927 9.52487C28.6079 9.52867 28.5195 9.52867 28.4347 9.52487C28.4015 9.52487 28.1767 9.49069 28.3278 9.51728C28.2283 9.49828 28.1325 9.47929 28.0366 9.4527C27.9408 9.42611 27.8487 9.39192 27.7565 9.35394C27.8855 9.40712 27.7528 9.35014 27.7307 9.33874C27.6865 9.31595 27.6423 9.29316 27.598 9.26657C27.5133 9.22099 27.4359 9.16781 27.3548 9.11463C27.3179 9.08804 27.2811 9.06145 27.2479 9.03486C27.2 8.99687 27.2 8.99687 27.2553 9.03866C27.2332 9.01966 27.2074 9.00067 27.1852 8.98168C27.0341 8.84873 26.8904 8.70058 26.7614 8.54484C26.7319 8.50686 26.7024 8.46887 26.6729 8.43089C26.7503 8.52965 26.6287 8.36631 26.614 8.34732C26.5476 8.25235 26.485 8.15359 26.426 8.05103C26.3117 7.8573 26.2122 7.65218 26.1275 7.44326C26.1717 7.55342 26.109 7.38628 26.1053 7.37868C26.0795 7.31031 26.0574 7.24193 26.0353 7.17356C25.9948 7.05201 25.9579 6.92665 25.9247 6.8013C25.8953 6.69114 25.8695 6.58098 25.8473 6.47082C25.8363 6.41385 25.8252 6.35687 25.8142 6.29989C25.8105 6.2809 25.7773 6.06438 25.7921 6.16314C25.7552 5.88585 25.7405 5.60475 25.7405 5.32746C25.7405 5.03117 25.4862 4.74248 25.1876 4.75767C24.8891 4.77666 24.6348 5.01217 24.6348 5.33125Z" fill="white"/>
<path d="M24.9464 10.2199C23.1957 10.5808 21.6846 11.7507 20.8479 13.3727C20.7079 13.6462 20.7816 13.9919 21.047 14.1514C21.2976 14.3034 21.6625 14.2198 21.8025 13.9463C21.8984 13.764 21.9979 13.5855 22.1121 13.4145C22.1674 13.3309 22.2264 13.2436 22.2853 13.1638C22.3185 13.1182 22.2559 13.198 22.3148 13.1258C22.348 13.084 22.3849 13.0385 22.418 12.9967C22.5433 12.8485 22.6723 12.708 22.8124 12.575C22.8861 12.5067 22.9598 12.4383 23.0335 12.3699C23.0667 12.3395 23.1036 12.3091 23.1367 12.2825C23.1662 12.2597 23.1662 12.2597 23.133 12.2863C23.1552 12.2711 23.1773 12.2522 23.1994 12.237C23.5127 11.9976 23.8518 11.8001 24.2056 11.633C24.294 11.5912 24.1982 11.6368 24.2498 11.614C24.294 11.5988 24.3346 11.5798 24.3788 11.5646C24.482 11.5266 24.5852 11.4886 24.6921 11.4583C24.8727 11.4013 25.057 11.3595 25.2412 11.3215C25.5324 11.2607 25.702 10.9037 25.6282 10.6188C25.5398 10.3035 25.2376 10.1591 24.9464 10.2199Z" fill="white"/>
<path d="M21.4829 19.063C21.9768 19.063 22.4743 19.063 22.9682 19.063C24.1587 19.063 25.3491 19.063 26.5396 19.063C27.9807 19.063 29.4218 19.063 30.8592 19.063C32.1049 19.063 33.3507 19.063 34.5965 19.063C35.2046 19.063 35.8127 19.082 36.4172 19.063C36.4245 19.063 36.4356 19.063 36.443 19.063C36.7415 19.063 36.9958 18.8009 36.9958 18.4932C36.9958 18.0715 36.9958 17.6537 36.9958 17.232C36.9958 16.7572 37.0142 16.2748 36.97 15.8038C36.8115 14.0375 35.9712 12.4231 34.6038 11.3405C33.8999 10.7821 33.0595 10.3832 32.186 10.2199C31.9022 10.1667 31.5779 10.2997 31.5042 10.6187C31.4415 10.896 31.5853 11.2645 31.8912 11.3215C32.2524 11.3899 32.6099 11.4962 32.949 11.6444C32.8347 11.595 32.9858 11.6633 32.9969 11.6671C33.0264 11.6823 33.0559 11.6975 33.0853 11.7089C33.1738 11.7545 33.2622 11.8001 33.347 11.8495C33.5129 11.9444 33.6714 12.047 33.8262 12.1572C33.8593 12.18 33.8925 12.2065 33.9257 12.2293C33.9367 12.2369 34.062 12.3395 33.9699 12.2635C34.0326 12.3167 34.0952 12.3699 34.1579 12.4269C34.3053 12.5598 34.4453 12.7004 34.5817 12.8485C34.6444 12.9169 34.7033 12.9852 34.7586 13.0574C34.7844 13.0916 34.8102 13.122 34.836 13.1562C34.9392 13.2853 34.7771 13.065 34.8692 13.2018C34.9834 13.3689 35.0977 13.536 35.1972 13.7108C35.2857 13.8665 35.3668 14.0261 35.4405 14.1894C35.4589 14.2274 35.4736 14.2692 35.4921 14.3072C35.5584 14.4629 35.4552 14.2046 35.5142 14.3603C35.551 14.4591 35.5842 14.5541 35.6174 14.6528C35.6764 14.8352 35.728 15.0213 35.7685 15.2112C35.7906 15.3062 35.809 15.4011 35.8238 15.4961C35.8312 15.5417 35.8385 15.5835 35.8459 15.6291C35.857 15.6974 35.857 15.7012 35.8459 15.6367C35.8496 15.6708 35.8533 15.7088 35.857 15.743C35.9012 16.1912 35.8864 16.6471 35.8864 17.0991C35.8864 17.5625 35.8864 18.0259 35.8864 18.4894C36.0707 18.2994 36.255 18.1095 36.4393 17.9196C35.9454 17.9196 35.4478 17.9196 34.954 17.9196C33.7635 17.9196 32.573 17.9196 31.3826 17.9196C29.9415 17.9196 28.5004 17.9196 27.063 17.9196C25.8172 17.9196 24.5715 17.9196 23.3257 17.9196C22.7176 17.9196 22.1094 17.9006 21.505 17.9196C21.4976 17.9196 21.4866 17.9196 21.4792 17.9196C21.1917 17.9196 20.9116 18.1817 20.9263 18.4894C20.9448 18.8009 21.1733 19.063 21.4829 19.063Z" fill="white"/>
<path d="M24.6934 11.1735C25.7069 12.0395 26.7242 12.9056 27.7377 13.7717C27.8851 13.897 28.0289 14.0224 28.1763 14.1439C28.4233 14.3529 28.7107 14.3567 28.9577 14.1439C29.9712 13.2779 30.9885 12.4118 32.002 11.5419C32.1495 11.4166 32.2932 11.2912 32.4406 11.1697C32.6691 10.9721 32.6397 10.5657 32.4406 10.3644C32.2121 10.1288 31.8878 10.1668 31.6593 10.3644C30.6457 11.2304 29.6285 12.0965 28.6149 12.9664C28.4675 13.0917 28.3237 13.2171 28.1763 13.3386C28.438 13.3386 28.696 13.3386 28.9577 13.3386C27.9441 12.4726 26.9269 11.6065 25.9133 10.7404C25.7659 10.6151 25.6222 10.4897 25.4747 10.3682C25.2462 10.1706 24.9182 10.1364 24.6934 10.3682C24.498 10.5695 24.4649 10.9759 24.6934 11.1735Z" fill="white"/>
<path d="M14.5694 16.2673C14.5767 18.1514 15.336 20.3697 17.0867 21.2472C17.8533 21.6347 18.7563 21.722 19.5634 21.403C20.4185 21.0649 21.093 20.4115 21.5684 19.61C22.6336 17.8095 22.6852 15.4354 21.8707 13.5285C21.163 11.8761 19.5192 10.539 17.6948 11.0443C15.8078 11.5685 14.8274 13.6387 14.6136 15.4886C14.5841 15.7469 14.5694 16.0052 14.5694 16.2673C14.5694 16.5636 14.8237 16.8523 15.1222 16.8371C15.4244 16.8219 15.6751 16.5864 15.6751 16.2673C15.6751 16.028 15.6861 15.7849 15.7119 15.5456C15.7119 15.5418 15.7377 15.3518 15.723 15.4658C15.7304 15.4088 15.7414 15.3518 15.7488 15.2949C15.7672 15.1809 15.7893 15.0707 15.8151 14.9568C15.863 14.7403 15.9257 14.5275 15.9994 14.3148C16.0178 14.2654 16.0363 14.2123 16.0547 14.1629C16.1137 13.9995 16.0105 14.2578 16.0805 14.1021C16.121 14.0071 16.1653 13.9084 16.2132 13.8172C16.3053 13.6349 16.4048 13.4601 16.5191 13.2892C16.5449 13.2474 16.5744 13.2094 16.6039 13.1677C16.696 13.0347 16.5338 13.2512 16.6333 13.1259C16.696 13.0537 16.755 12.9777 16.8176 12.9056C16.8803 12.8372 16.9466 12.7688 17.013 12.7042C17.0461 12.6738 17.0793 12.6435 17.1162 12.6131C17.1309 12.6017 17.2489 12.5029 17.1457 12.5865C17.2857 12.4763 17.4331 12.3814 17.5879 12.2978C17.6248 12.2788 17.6653 12.2598 17.7022 12.2408C17.8312 12.1762 17.5916 12.2788 17.728 12.2294C17.8091 12.199 17.8865 12.1686 17.9712 12.1458C18.0523 12.1231 18.1371 12.1079 18.2182 12.0889C18.1334 12.0889 18.3509 12.0585 18.2182 12.0889C18.2661 12.0889 18.3177 12.0775 18.3693 12.0775C18.4541 12.0737 18.5425 12.0737 18.6273 12.0775C18.6715 12.0813 18.7121 12.0851 18.7563 12.0889C18.9 12.1003 18.6383 12.0623 18.7784 12.0927C18.9479 12.1306 19.1064 12.1724 19.2686 12.2332C19.405 12.2826 19.1654 12.18 19.2944 12.2446C19.3312 12.2636 19.3718 12.2826 19.4086 12.3016C19.486 12.3434 19.5598 12.389 19.6335 12.4345C19.7072 12.4839 19.7809 12.5371 19.8509 12.5903C19.7625 12.5219 19.8251 12.5713 19.8436 12.5865C19.8878 12.6283 19.9357 12.6662 19.9799 12.708C20.1163 12.8372 20.2416 12.9815 20.3595 13.1259C20.4591 13.2474 20.2969 13.0347 20.389 13.1677C20.4185 13.2094 20.4443 13.2474 20.4738 13.2892C20.5291 13.3728 20.5844 13.4563 20.6323 13.5437C21.0414 14.2503 21.2625 15.0897 21.3068 15.9026C21.3215 16.1457 21.3215 16.3888 21.3068 16.632C21.2994 16.7421 21.292 16.8485 21.281 16.9586C21.2773 17.008 21.2699 17.0574 21.2625 17.1068C21.2773 17.008 21.2441 17.2245 21.2404 17.2435C21.2036 17.4676 21.152 17.688 21.0893 17.9083C21.0635 17.9956 21.0377 18.083 21.0082 18.1704C20.9898 18.2236 20.9714 18.2729 20.9529 18.3223C20.9419 18.3565 20.9271 18.3907 20.9161 18.4249C20.9382 18.3717 20.9382 18.3755 20.9124 18.4363C20.8276 18.6262 20.7392 18.8123 20.636 18.9947C20.5954 19.0668 20.5512 19.139 20.5033 19.2074C20.4775 19.2492 20.448 19.291 20.4185 19.3289C20.4001 19.3555 20.3817 19.3821 20.3595 19.4087C20.3964 19.3593 20.3964 19.3593 20.3595 19.4087C20.2379 19.5531 20.1163 19.6974 19.9799 19.8265C19.9246 19.8797 19.8657 19.9291 19.8104 19.9785C19.9136 19.8911 19.7993 19.9861 19.7809 20.0013C19.733 20.0355 19.6851 20.0697 19.6335 20.1038C19.5598 20.1532 19.486 20.195 19.4086 20.2368C19.3718 20.2558 19.3312 20.2748 19.2944 20.2938C19.1654 20.3583 19.405 20.2558 19.2686 20.3052C19.1064 20.3621 18.9443 20.4077 18.7784 20.4457C18.6383 20.4761 18.9 20.4381 18.7563 20.4495C18.7121 20.4533 18.6715 20.4571 18.6273 20.4609C18.5425 20.4647 18.4541 20.4647 18.3693 20.4609C18.3361 20.4609 18.1113 20.4267 18.2624 20.4533C18.1629 20.4343 18.0671 20.4153 17.9712 20.3887C17.8754 20.3621 17.7833 20.328 17.6911 20.29C17.8201 20.3432 17.6874 20.2862 17.6653 20.2748C17.6211 20.252 17.5769 20.2292 17.5326 20.2026C17.4479 20.157 17.3705 20.1038 17.2894 20.0507C17.2525 20.0241 17.2157 19.9975 17.1825 19.9709C17.1346 19.9329 17.1346 19.9329 17.1899 19.9747C17.1678 19.9557 17.142 19.9367 17.1199 19.9177C16.9687 19.7848 16.825 19.6366 16.696 19.4809C16.6665 19.4429 16.637 19.4049 16.6075 19.3669C16.6849 19.4657 16.5633 19.3023 16.5486 19.2834C16.4822 19.1884 16.4196 19.0896 16.3606 18.9871C16.2464 18.7933 16.1468 18.5882 16.0621 18.3793C16.1063 18.4895 16.0436 18.3223 16.04 18.3147C16.0142 18.2463 15.992 18.178 15.9699 18.1096C15.9294 17.988 15.8925 17.8627 15.8594 17.7373C15.8299 17.6272 15.8041 17.517 15.782 17.4069C15.7709 17.3499 15.7598 17.2929 15.7488 17.2359C15.7451 17.2169 15.7119 17.0004 15.7267 17.0992C15.6898 16.8219 15.6751 16.5408 15.6751 16.2635C15.6751 15.9672 15.4208 15.6785 15.1222 15.6937C14.8237 15.7089 14.5657 15.9482 14.5694 16.2673Z" fill="white"/>
<path d="M21.8318 22.254C22.0124 22.2882 22.193 22.3337 22.3699 22.3869C22.4658 22.4173 22.5616 22.4477 22.6537 22.4819C22.6832 22.4933 22.7164 22.5047 22.7459 22.5161C22.7643 22.5237 22.9523 22.6072 22.8417 22.5541C23.1734 22.706 23.4867 22.8883 23.7815 23.1011C23.8221 23.1314 23.8626 23.1618 23.8995 23.1922C24.0285 23.291 23.8184 23.12 23.9437 23.2264C24.0064 23.2796 24.069 23.3328 24.1317 23.3897C24.2791 23.5227 24.4192 23.667 24.5518 23.8152C24.6071 23.876 24.6624 23.9405 24.714 24.0051C24.7472 24.0431 24.7767 24.0849 24.8062 24.1229C24.7324 24.0241 24.832 24.1609 24.8393 24.1685C24.9462 24.3204 25.0457 24.4761 25.1379 24.6395C25.23 24.8028 25.3148 24.97 25.3922 25.1409C25.4143 25.1865 25.4327 25.2359 25.4548 25.2814C25.4143 25.1827 25.4548 25.289 25.4659 25.3118C25.5064 25.4182 25.5433 25.5245 25.5765 25.6309C25.6317 25.8056 25.6797 25.9842 25.7165 26.1627C25.7386 26.2577 25.7534 26.3526 25.7718 26.4514C25.7792 26.5046 25.7902 26.5578 25.7939 26.6109C25.7792 26.5084 25.7976 26.6451 25.7976 26.6717C25.8418 27.1199 25.8271 27.5758 25.8271 28.0278C25.8271 28.4912 25.8271 28.9547 25.8271 29.4181C26.0114 29.2281 26.1956 29.0382 26.3799 28.8483C25.8566 28.8483 25.3332 28.8483 24.8098 28.8483C23.5567 28.8483 22.3073 28.8483 21.0542 28.8483C19.5357 28.8483 18.0135 28.8483 16.495 28.8483C15.1866 28.8483 13.8745 28.8483 12.5661 28.8483C11.9285 28.8483 11.2798 28.8103 10.6458 28.8483C10.6385 28.8483 10.6274 28.8483 10.62 28.8483C10.8043 29.0382 10.9886 29.2281 11.1729 29.4181C11.1729 28.6128 11.1434 27.8037 11.1803 26.9984C11.184 26.8882 11.1913 26.7819 11.2024 26.6717C11.2061 26.6375 11.2098 26.5995 11.2134 26.5654C11.1987 26.6907 11.2208 26.516 11.2208 26.5046C11.254 26.2957 11.2982 26.0867 11.3498 25.8816C11.3977 25.7069 11.453 25.5321 11.5157 25.3612C11.5304 25.3194 11.5451 25.2814 11.5636 25.2397C11.5193 25.3536 11.582 25.1979 11.5857 25.1865C11.6262 25.0915 11.6705 25.0003 11.7147 24.9092C11.7995 24.742 11.8916 24.5787 11.9911 24.423C12.0353 24.3508 12.0833 24.2824 12.1312 24.214C12.1607 24.1723 12.1901 24.1305 12.2196 24.0925C12.1496 24.1874 12.2749 24.0241 12.286 24.0089C12.5182 23.7202 12.7762 23.4695 13.0526 23.2264C13.1742 23.12 12.9641 23.291 13.0968 23.1922C13.1447 23.158 13.189 23.1238 13.2369 23.0897C13.3253 23.0251 13.4138 22.9681 13.5022 22.9073C13.6718 22.801 13.845 22.706 14.0219 22.6186C14.0661 22.5958 14.1104 22.5769 14.1583 22.5541C14.0477 22.6034 14.2357 22.5237 14.2541 22.5161C14.3462 22.4781 14.4421 22.4439 14.5379 22.4135C14.7443 22.3451 14.9581 22.292 15.1718 22.2502C15.4667 22.1932 15.6325 21.8285 15.5588 21.5474C15.4741 21.2322 15.1718 21.0916 14.877 21.1486C13.2516 21.4677 11.8179 22.5275 10.9554 23.9785C10.5242 24.7041 10.2441 25.5245 10.1299 26.364C10.0598 26.8958 10.0635 27.4238 10.0635 27.9594C10.0635 28.4456 10.0635 28.9319 10.0635 29.4219C10.0635 29.7296 10.3178 29.9917 10.6164 29.9917C11.1397 29.9917 11.6631 29.9917 12.1865 29.9917C13.4396 29.9917 14.689 29.9917 15.9421 29.9917C17.4606 29.9917 18.9828 29.9917 20.5013 29.9917C21.8097 29.9917 23.1218 29.9917 24.4302 29.9917C25.0678 29.9917 25.7128 30.0107 26.3504 29.9917C26.3578 29.9917 26.3689 29.9917 26.3762 29.9917C26.6748 29.9917 26.9291 29.7296 26.9291 29.4219C26.9291 29.0078 26.9291 28.5938 26.9291 28.1797C26.9291 27.7163 26.9475 27.2453 26.9107 26.7857C26.7706 25.0649 25.9745 23.4277 24.6514 22.3565C23.9105 21.7564 23.0518 21.3309 22.123 21.1486C21.8392 21.0916 21.5112 21.2284 21.4411 21.5474C21.3859 21.8323 21.5296 22.1932 21.8318 22.254Z" fill="white"/>
<path d="M14.6297 22.1095C15.6433 22.9756 16.6605 23.8416 17.6741 24.7077C17.8215 24.8331 17.9652 24.9584 18.1127 25.08C18.3596 25.2889 18.6471 25.2927 18.894 25.08C19.9076 24.2139 20.9248 23.3478 21.9384 22.478C22.0858 22.3526 22.2296 22.2272 22.377 22.1057C22.6055 21.9082 22.576 21.5017 22.377 21.3004C22.1485 21.0649 21.8241 21.1029 21.5956 21.3004C20.5821 22.1665 19.5648 23.0325 18.5513 23.9024C18.4038 24.0278 18.2601 24.1531 18.1127 24.2747C18.3744 24.2747 18.6323 24.2747 18.894 24.2747C17.8805 23.4086 16.8632 22.5425 15.8497 21.6765C15.7022 21.5511 15.5585 21.4257 15.4111 21.3042C15.1826 21.1067 14.8545 21.0725 14.6297 21.3042C14.4307 21.5055 14.3975 21.912 14.6297 22.1095Z" fill="white"/>
</svg>
