<svg width="30" height="30" viewBox="0 0 30 30" fill="none" xmlns="http://www.w3.org/2000/svg">
<path d="M26.875 1.49831L24.2438 0.0610389C24.0938 -0.0201981 23.9125 -0.0201981 23.7625 0.0610389L21.125 1.49831C19.85 2.19195 18.8688 3.32927 18.3688 4.6978C18.1188 4.28536 17.8063 3.91042 17.4438 3.59797C17.775 1.97323 16.7188 0.392236 15.1 0.0610389C13.4813 -0.270158 11.8875 0.779674 11.5625 2.40441C11.4813 2.7981 11.4813 3.19804 11.5625 3.59172C9.85003 5.07274 9.50003 7.59108 10.75 9.47828C10.475 9.73449 10.225 10.0219 10.0063 10.3344C9.78753 10.0219 9.53753 9.73449 9.25628 9.47828C10.5063 7.59108 10.1563 5.07274 8.44378 3.59797C8.77503 1.97323 7.71878 0.392236 6.10004 0.0610389C4.48129 -0.270158 2.88754 0.779674 2.56254 2.40441C2.52504 2.59813 2.50004 2.7981 2.50004 2.99807C2.50004 3.19804 2.51879 3.39801 2.55629 3.59172C0.843795 5.06649 0.493795 7.59108 1.74379 9.47828C0.625045 10.5156 -0.00620402 11.9716 4.59735e-05 13.4964C0.00629596 16.3397 2.16879 18.7081 5.00004 18.9705V19.9953H1.00004C0.725045 19.9953 0.500045 20.2203 0.500045 20.4953V22.495C0.500045 22.7699 0.725045 22.9949 1.00004 22.9949H1.03754L1.50004 29.5313C1.51879 29.7938 1.73754 29.9938 2.00004 29.9938H9.00003C9.26253 29.9938 9.48128 29.7938 9.50003 29.5313L9.96878 22.9949H10.0375L10.5063 29.5313C10.525 29.7938 10.7438 29.9938 11.0063 29.9938H18.0063C18.2688 29.9938 18.4875 29.7938 18.5063 29.5313L18.975 22.9949H19.0125C19.2875 22.9949 19.5125 22.7699 19.5125 22.495V20.4953C19.5125 20.2203 19.2875 19.9953 19.0125 19.9953H15.0125V18.9705C17.4813 18.7456 19.4875 16.9021 19.925 14.465C20.6125 14.6462 21.3063 14.7774 22.0125 14.8649V22.7887L20.1563 24.6446C20.0625 24.7383 20.0125 24.8633 20.0125 25.0008V29.5001C20.0125 29.775 20.2375 30 20.5125 30H27.5125C27.7875 30 28.0125 29.775 28.0125 29.5001V25.0008C28.0125 24.8696 27.9625 24.7383 27.8688 24.6446L26 22.7887V14.8649C27.2063 14.7149 28.3875 14.4337 29.5312 14.0151L29.6688 13.9651C29.8687 13.8963 30 13.7026 30 13.4964V6.75997C30 4.56657 28.8 2.54814 26.875 1.49831ZM1.00004 13.4964C0.993795 12.2653 1.49379 11.0905 2.38754 10.2469C2.66879 10.5156 2.98129 10.7468 3.31879 10.9343L3.80629 10.0594C2.11254 9.12209 1.50004 6.99743 2.43754 5.30395C2.58129 5.04774 2.75629 4.81028 2.95629 4.59156C3.15004 4.90401 3.40629 5.17272 3.70004 5.39769L4.30004 4.59781C3.41879 3.93542 3.23754 2.67937 3.90004 1.79826C4.56254 0.917152 5.81879 0.735931 6.70004 1.39833C7.58128 2.06072 7.76253 3.31677 7.10004 4.19788L7.90003 4.79778C7.95003 4.72904 8.00003 4.6603 8.04378 4.59156C9.37503 5.99759 9.31253 8.20973 7.90628 9.54077C7.70628 9.72824 7.48753 9.89072 7.25003 10.0282L7.75003 10.8906C8.06253 10.7093 8.35003 10.4906 8.61253 10.2407C9.50628 11.0843 10.0063 12.2653 10 13.4901C10 15.7773 8.27503 17.702 6.00004 17.9582V16.6959L8.85628 13.8401L8.15003 13.1339L6.00004 15.2899V8.20349L7.85628 6.34753L7.15003 5.6414L6.00004 6.79121V3.49799H5.00004V12.7903L3.85629 11.6467L3.15004 12.3528L5.00004 14.2025V17.9644C2.72504 17.7082 1.00004 15.7835 1.00004 13.4964ZM8.53753 28.9939H2.46254L2.03129 22.9949H8.95628L8.53753 28.9939ZM9.50003 21.995H1.50004V20.9952H9.50003V21.995ZM6.00004 19.9953V18.9705C7.60628 18.8205 9.06878 17.9769 10 16.6521C10.9313 17.9769 12.3938 18.8205 14 18.9705V19.9953H6.00004ZM17.5375 28.9939H11.4688L11.0375 22.9949H17.9625L17.5375 28.9939ZM18.5 20.9952V21.995H10.5V20.9952H18.5ZM17.5313 16.8209C16.8313 17.4583 15.9438 17.8582 15 17.9644V14.7024L17.3563 12.3466L16.65 11.6404L15 13.2902V9.20333L16.8563 7.34737L16.15 6.64124L15 7.79105V3.49799H14V6.79121L12.8563 5.64765L12.15 6.35378L14.0063 8.20973V13.2964L12.3625 11.6529L11.6563 12.3591L14.0125 14.7149V17.9769C12.5563 17.8144 11.275 16.9521 10.5688 15.671C11.1625 14.2838 11.1625 12.7215 10.575 11.3342C10.7938 10.9343 11.075 10.5719 11.4063 10.2594C11.6875 10.5281 12 10.7593 12.3375 10.9468L12.825 10.0719C11.1313 9.13459 10.525 7.00993 11.4563 5.31645C11.6 5.06024 11.775 4.82278 11.975 4.60406C12.1688 4.91651 12.425 5.18522 12.7188 5.41018L13.3188 4.61031C12.4375 3.94792 12.2563 2.69187 12.9188 1.81076C13.5813 0.92965 14.8375 0.748429 15.7188 1.41082C16.6 2.07322 16.7813 3.32927 16.1188 4.21038L16.9188 4.81028C16.9688 4.74154 17.0188 4.6728 17.0625 4.60406C18.3938 6.01009 18.3313 8.22223 16.925 9.55327C16.725 9.74074 16.5063 9.90321 16.2688 10.0407L16.7688 10.9031C17.25 10.6281 17.6688 10.2594 18.0188 9.82823V13.4964C18.0188 13.7089 18.15 13.8963 18.35 13.9651L18.4875 14.0151C18.6438 14.0713 18.8063 14.1275 18.9688 14.1775C18.7938 15.1961 18.2938 16.1335 17.5313 16.8209ZM27 25.2008V28.9939H21V25.2008L22.8563 23.3448C22.95 23.2511 23 23.1261 23 22.9886V14.9587C23.3313 14.9774 23.6688 14.9899 24 14.9899C24.3313 14.9899 24.6688 14.9774 25 14.9587V22.9949C25 23.1261 25.05 23.2573 25.1438 23.3511L27 25.2008ZM29 13.1464C25.7625 14.2713 22.2375 14.2713 19 13.1464V6.75997C19 4.93526 20 3.24803 21.6063 2.37317L24 1.06713L26.3938 2.37317C28 3.24803 29 4.93526 29 6.75997V13.1464Z" fill="white"/>
<path d="M24 2.99805V3.99789C25.6562 3.99789 27 5.34142 27 6.99741V9.99693H28V6.99741C28 4.79151 26.2062 2.99805 24 2.99805Z" fill="white"/>
<path d="M28 10.9966H27V11.9964H28V10.9966Z" fill="white"/>
<path d="M23.6437 24.1385L22.1437 25.6382C22.05 25.7319 22 25.8569 22 25.9944V27.4942C22 27.7691 22.225 27.9941 22.5 27.9941H25.5C25.775 27.9941 26 27.7691 26 27.4942V25.9944C26 25.8632 25.95 25.7319 25.8562 25.6382L24.3562 24.1385C24.1562 23.9447 23.8437 23.9447 23.6437 24.1385ZM25 26.9942H23V26.2006L24 25.2008L25 26.2006V26.9942Z" fill="white"/>
<path d="M7.00446 24.4238L6.50391 27.925L7.4938 28.0665L7.99436 24.5653L7.00446 24.4238Z" fill="white"/>
<path d="M16.0035 24.4241L15.5029 27.9253L16.4928 28.0668L16.9934 24.5656L16.0035 24.4241Z" fill="white"/>
</svg>
