<svg width="33" height="30" viewBox="0 0 33 30" fill="none" xmlns="http://www.w3.org/2000/svg">
<path d="M19.001 20.1891C20.0084 19.4098 20.6684 18.2056 20.6684 16.8243C20.6684 14.4866 18.8273 12.6094 16.5347 12.6094C14.2421 12.6094 12.401 14.4866 12.401 16.8243C12.401 18.2056 13.061 19.4098 14.0684 20.1891C12.1579 20.6495 10.6642 22.2788 10.421 24.3331L10.0389 27.6271C9.93471 28.4771 10.4905 29.2564 11.2894 29.4335C12.9568 29.7877 14.7284 30.0002 16.5347 30.0002C18.341 30.0002 20.0779 29.8231 21.78 29.4335C22.5789 29.2564 23.1347 28.4417 23.0305 27.6271L22.6484 24.3331C22.3705 22.2788 20.9116 20.6495 19.001 20.1891ZM16.5 14.2387C17.8894 14.2387 19.0358 15.4075 19.0358 16.8243C19.0358 18.241 17.8894 19.4098 16.5 19.4098C15.1105 19.4098 13.9642 18.241 13.9642 16.8243C13.9989 15.4075 15.1105 14.2387 16.5 14.2387ZM11.6021 27.8042L11.9842 24.5102C12.1926 22.8809 13.5126 21.6767 15.1105 21.6767H17.8894C19.4873 21.6767 20.8421 22.8809 21.0158 24.5102L21.3979 27.8042C18.2716 28.5126 14.7631 28.5126 11.6021 27.8042Z" fill="white"/>
<path d="M30.1863 13.9551C28.8663 13.9551 27.7547 14.876 27.4768 16.1157H23.4821C23.3432 14.6635 22.7874 13.353 21.9189 12.255L24.7326 9.38607C25.1495 9.634 25.6358 9.8111 26.1568 9.8111C27.72 9.8111 28.9705 8.53601 28.9705 6.94215C28.9705 5.34829 27.72 4.0732 26.1568 4.0732C24.5937 4.0732 23.3432 5.34829 23.3432 6.94215C23.3432 7.47343 23.4821 7.9693 23.76 8.39433L20.9463 11.2633C19.9042 10.3778 18.6189 9.8111 17.1947 9.66942V5.63164C18.4105 5.31287 19.3137 4.21488 19.3137 2.86895C19.3137 1.27509 18.0632 0 16.5 0C14.9368 0 13.6863 1.27509 13.6863 2.86895C13.6863 4.21488 14.5895 5.31287 15.8053 5.63164V9.70484C14.3811 9.84651 13.0958 10.4132 12.0537 11.2987L9.24 8.42975C9.48316 8.00472 9.65684 7.50885 9.65684 6.97757C9.65684 5.38371 8.40632 4.10862 6.84316 4.10862C5.28 4.10862 4.02947 5.38371 4.02947 6.97757C4.02947 8.57143 5.28 9.84652 6.84316 9.84652C7.36421 9.84652 7.85053 9.70484 8.26737 9.42149L11.0811 12.2904C10.2126 13.353 9.65684 14.6635 9.51789 16.1157H5.52316C5.21053 14.876 4.13368 13.9551 2.81368 13.9551C1.25053 13.9551 0 15.2302 0 16.8241C0 18.4179 1.25053 19.693 2.81368 19.693C4.13368 19.693 5.24526 18.7721 5.52316 17.5325H9.48316C9.51789 18.0638 9.62211 18.595 9.79579 19.0909C9.9 19.3743 10.1432 19.5514 10.4558 19.5514C10.5253 19.5514 10.5947 19.5514 10.6642 19.5159C11.0116 19.3743 11.22 18.9846 11.0811 18.6305C10.9074 18.0638 10.8032 17.4616 10.8032 16.8595C10.8032 13.6718 13.3389 11.0508 16.5 11.0508C19.6611 11.0508 22.1968 13.6364 22.1968 16.8595C22.1968 17.4616 22.0926 18.0638 21.9189 18.6305C21.78 18.9846 21.9884 19.3743 22.3358 19.5159C22.6832 19.6222 23.0653 19.4451 23.2042 19.0909C23.3779 18.595 23.4474 18.0992 23.5168 17.5679H27.4768C27.7895 18.8076 28.8663 19.7285 30.1863 19.7285C31.7495 19.7285 33 18.4534 33 16.8595C33 15.2302 31.7495 13.9551 30.1863 13.9551ZM2.81368 18.2763C2.01474 18.2763 1.35474 17.6033 1.35474 16.7887C1.35474 15.974 2.01474 15.3011 2.81368 15.3011C3.61263 15.3011 4.27263 15.974 4.27263 16.7887C4.27263 17.6033 3.61263 18.2763 2.81368 18.2763ZM26.1916 5.48996C26.9905 5.48996 27.6505 6.16293 27.6505 6.97757C27.6505 7.79221 26.9905 8.46517 26.1916 8.46517C25.3926 8.46517 24.7326 7.79221 24.7326 6.97757C24.7326 6.16293 25.3926 5.48996 26.1916 5.48996ZM15.0758 2.86895C15.0758 2.05431 15.7358 1.38135 16.5347 1.38135C17.3337 1.38135 17.9937 2.05431 17.9937 2.86895C17.9937 3.68359 17.3337 4.35655 16.5347 4.35655C15.7011 4.32113 15.0758 3.68359 15.0758 2.86895ZM6.84316 8.39433C6.04421 8.39433 5.38421 7.72137 5.38421 6.90673C5.38421 6.09209 6.04421 5.41913 6.84316 5.41913C7.64211 5.41913 8.3021 6.09209 8.3021 6.90673C8.3021 7.72137 7.64211 8.39433 6.84316 8.39433ZM30.1863 18.3117C29.3874 18.3117 28.7274 17.6387 28.7274 16.8241C28.7274 16.0094 29.3874 15.3365 30.1863 15.3365C30.9853 15.3365 31.6453 16.0094 31.6453 16.8241C31.6453 17.6387 30.9853 18.3117 30.1863 18.3117Z" fill="white"/>
</svg>
